<svg xmlns="http://www.w3.org/2000/svg" viewBox="0 0 512 512">
  <rect width="512" height="512" fill="#dc2626" rx="100"/>
  <path fill="#ffffff" d="M100 256h60c15 0 25-10 25-25v-20c0-15-10-25-25-25h-30v-40h50c10 0 15-5 15-15v-20c0-10-5-15-15-15H100c-15 0-25 10-25 25v110c0 15 10 25 25 25z"/>
  <path fill="#ffffff" d="M220 256h60c15 0 25-10 25-25v-80c0-15-10-25-25-25h-60c-15 0-25 10-25 25v80c0 15 10 25 25 25zm25-90h10v40h-10v-40z"/>
  <path fill="#ffffff" d="M340 256h60c15 0 25-10 25-25v-80c0-15-10-25-25-25h-60c-15 0-25 10-25 25v80c0 15 10 25 25 25zm25-90h10v40h-10v-40z"/>
  <path fill="#1f2937" d="M150 320l40 40 130-130 40 40" stroke="#1f2937" stroke-width="40" stroke-linecap="round" stroke-linejoin="round" fill="none" opacity="0.3"/>
  <path fill="none" stroke="#ffffff" stroke-width="25" stroke-linecap="round" d="M140 380l232 0 M140 430l232 0" opacity="0.5"/>
</svg>